<?xml version="1.0" standalone="yes"?>
<svg width="200" height="200">
<path style="fill:#000000; stroke:none;" d="M0 0L0 200L200 200L200 0L0 0z"/>
<path style="fill:#1c55ff; stroke:none;" d="M39 71.4684C12.7968 76.2939 19.629 116.295 46 111.671C71.8501 107.139 64.6099 66.7521 39 71.4684z"/>
<path style="fill:#b0c3ff; stroke:none;" d="M38 75L38 76L45 77L45 75L38 75z"/>
<path style="fill:#edf1ff; stroke:none;" d="M29 83L37 78L35 82L35 83L40 83L40 87L35 87L35 88L37 91L33 91L29 99L26 95C31.175 111.207 55.9445 112.926 58 94L57 94C55.1303 98.6525 53.3178 100.019 49 97L48 97L44 99L44 95L36 97L34 92L38 92L38 88L41 88L41 82L38 82L40 77C35.2364 75.3669 31.0953 78.9022 29 83z"/>
<path style="fill:#ffffff; stroke:none;" d="M45 76L45 77L48 77L45 76z"/>
<path style="fill:#6c91ff; stroke:none;" d="M38 77C38.0642 79.9934 37.9461 81.3456 41 82L41 81L38 77z"/>
<path style="fill:#1c55ff; stroke:none;" d="M39 77L41 84C45.8896 83.619 46.8449 81.724 47 77L39 77z"/>
<path style="fill:#88a6ff; stroke:none;" d="M47 77L47 82L48 82L47 77z"/>
<path style="fill:#d1ddff; stroke:none;" d="M48 77C47.3026 81.4665 45.4665 83.3026 41 84L41 86C44.8823 87.1776 45.6994 89.0481 46 93L47 93L48 88L51 88L52 93L53 93L53 86L47 86L49 79L56 88L59 87C56.3158 82.3568 53.2953 78.4873 48 77z"/>
<path style="fill:#1c55ff; stroke:none;" d="M30 84L37 82L37 78L30 84M116 81L116 99L121 99L121 81L116 81z"/>
<path style="fill:#c7d5ff; stroke:none;" d="M34 82L28 83L26 93L27 93C27.5905 87.7601 29.9913 85.2819 35 88L34 82z"/>
<path style="fill:#1c55ff; stroke:none;" d="M68 82L68 99L81 99L81 95L73 95L73 92L80 92L80 88L73 88L73 86L81 86L81 82L68 82M101 98L97 98C106.975 84.9021 87.4792 75.3741 82.8974 87.044C79.1829 96.5048 97.7006 107.941 101 98M157 82L157 99L162 99L162 82L157 82M165 82L165 99C169.197 98.9995 174.219 99.6026 177.891 97.142C182.671 93.939 183.154 86.2212 177.867 83.179C174.298 81.1254 168.962 82 165 82M36 83L36 87L39 87L39 83L36 83z"/>
<path style="fill:#6c91ff; stroke:none;" d="M39 83L39 87L40 87L39 83z"/>
<path style="fill:#1c55ff; stroke:none;" d="M148 86L137 86L137 99L142 99L142 90L148 90C148.069 95.8105 149.505 99.7152 156 98L156 96L152 95L152 90L155 90L155 86L152 83L148 86M102 86L103 90L109 90L109 91C105.773 91.1051 97.731 93.8326 103.438 97.8179C106.099 99.6767 110.887 98.8784 114 99C114 89.567 112.773 84.0308 102 86M134 94C138.303 90.062 131.721 84.2135 127.019 85.7863C111.912 90.8394 134.206 106.794 134 94M41 86L35 93L36 97L44 95L44 99L48 97L49 97C54.3136 103.164 56.7475 96.434 57 91L50 93L50 97L49 97L49 93L46 93C45.8629 88.8242 45.3619 86.7279 41 86z"/>
<path style="fill:#000000; stroke:none;" d="M89.3179 87.0471C85.482 89.4668 88.6068 95.9291 92.8634 93.8634C97.767 91.4838 93.92 84.1441 89.3179 87.0471M169 86L169 95C178.112 94.4966 178.29 86.3025 169 86z"/>
<path style="fill:#507cff; stroke:none;" d="M27 88L27 93L28 93L27 88z"/>
<path style="fill:#7295ff; stroke:none;" d="M34 88L34 89L37 89L34 88z"/>
<path style="fill:#6c91ff; stroke:none;" d="M38 88L38 92L39 92L41 89L38 88z"/>
<path style="fill:#1c55ff; stroke:none;" d="M48 88L48 91L51 91L51 88L48 88z"/>
<path style="fill:#648aff; stroke:none;" d="M53 89L53 90L57 90L53 89z"/>
<path style="fill:#ffffff; stroke:none;" d="M57 89L52 90L52 91L57 89z"/>
<path style="fill:#b0c3ff; stroke:none;" d="M58 89L57 94L58 89z"/>
<path style="fill:#000000; stroke:none;" d="M127 90L127 91L131 91L127 90z"/>
<path style="fill:#6f92ff; stroke:none;" d="M48 91L48 92L51 92L48 91z"/>
<path style="fill:#648aff; stroke:none;" d="M34 95L35 95L38 93C35.5878 91.6452 34.5676 92.3511 34 95z"/>
<path style="fill:#ffffff; stroke:none;" d="M47 92L47 93L49 97L50 97L52 93L47 92z"/>
<path style="fill:#b4c7ff; stroke:none;" d="M26.6667 94.3333L27.3333 94.6667L26.6667 94.3333z"/>
<path style="fill:#000000; stroke:none;" d="M106 94L106 95L109 95L106 94M128 94L128 95L131 95L128 94z"/>
<path style="fill:#6c91ff; stroke:none;" d="M38 96L38 100L39 100L42 97L38 96z"/>
<path style="fill:#1c55ff; stroke:none;" d="M30 100L30 101C36.8314 106.746 43.7687 107 52 104C48.5176 97.1565 43.0313 101.823 37 102C35.6592 97.6352 33.6056 97.6497 30 100M39 97L39 100L42 100L42 97L39 97z"/>
<path style="fill:#000000; stroke:none;" d="M96 98L97 99L96 98z"/>
<path style="fill:#88a6ff; stroke:none;" d="M37 101L37 102L44 102L37 101z"/>
<path style="fill:#648aff; stroke:none;" d="M39 106L39 107L45 107L39 106z"/>
</svg>
